<?xml version="1.0" ?><svg viewBox="0 0 64 64" xmlns="http://www.w3.org/2000/svg"><title/><g data-name="Day 24" id="02394cc3-fb8f-400b-a27d-f5ff7f5a85c7"><g data-name="&lt;Group&gt;" id="e3f901d4-928e-4538-8d57-ff4b4c8ce123"><path d="M19.92,59H12.74a1.38,1.38,0,0,1-1.24-2h0l12-2v.42A3.58,3.58,0,0,1,19.92,59Z" data-name="&lt;Path&gt;" fill="#f7956a" id="2e43d0c8-904b-43fc-abf8-65416325b8a5"/><path d="M44.5,59h6.76a1.38,1.38,0,0,0,1.24-2h0l-12-2h0A4,4,0,0,0,44.5,59Z" data-name="&lt;Path&gt;" fill="#f7956a" id="83a8fbb2-1c49-425c-92b8-1693de402f7a"/></g><g data-name="&lt;Group&gt;" id="f9d6894c-e890-465b-9d69-88ca0bbd90ad"><path d="M19.92,59H12.74a1.38,1.38,0,0,1-1.24-2h0l12-2v.42A3.58,3.58,0,0,1,19.92,59Z" data-name="&lt;Path&gt;" fill="none" id="39aad866-b05a-4812-a190-d9ee17cf527e" stroke="#001c63" stroke-linecap="round" stroke-linejoin="round" stroke-width="2"/><path d="M44.5,59h6.76a1.38,1.38,0,0,0,1.24-2h0l-12-2h0A4,4,0,0,0,44.5,59Z" data-name="&lt;Path&gt;" fill="none" id="0847797b-8247-446b-880a-47c0c9b9f64b" stroke="#001c63" stroke-linecap="round" stroke-linejoin="round" stroke-width="2"/></g><path d="M23.08,15.76l-1.74.9a1.7,1.7,0,0,1-2.46-1.23l-.79-4.7A1.6,1.6,0,0,1,21,9.7l2.57,3.38a1.7,1.7,0,0,1,.16.25l.07.13A1.7,1.7,0,0,1,23.08,15.76Z" data-name="&lt;Path&gt;" fill="#f7956a" id="a2571555-8abf-4475-aca4-58e106d6a0ab"/><path d="M23.08,15.76l-1.74.9a1.7,1.7,0,0,1-2.46-1.23l-.79-4.7A1.6,1.6,0,0,1,21,9.7l2.57,3.38a1.7,1.7,0,0,1,.16.25l.07.13A1.7,1.7,0,0,1,23.08,15.76Z" data-name="&lt;Path&gt;" fill="none" id="cda1df8b-6890-4832-8ea3-017ceaabbb98" stroke="#001c63" stroke-linecap="round" stroke-linejoin="round" stroke-width="2"/><path d="M41,15.76l1.74.9a1.7,1.7,0,0,0,2.46-1.23l.79-4.7a1.6,1.6,0,0,0-2.92-1L40.5,13.08a1.7,1.7,0,0,0-.16.25l-.07.13A1.7,1.7,0,0,0,41,15.76Z" data-name="&lt;Path&gt;" fill="#f7956a" id="3a30c736-94bd-4214-8ced-9d5e60e9bba7"/><path d="M41,15.76l1.74.9a1.7,1.7,0,0,0,2.46-1.23l.79-4.7a1.6,1.6,0,0,0-2.92-1L40.5,13.08a1.7,1.7,0,0,0-.16.25l-.07.13A1.7,1.7,0,0,0,41,15.76Z" data-name="&lt;Path&gt;" fill="none" id="730cec07-6f97-4ec3-85cc-0872ecb738c6" stroke="#001c63" stroke-linecap="round" stroke-linejoin="round" stroke-width="2"/><path d="M52,45.5C52,57.93,43,59,32,59S12,57.93,12,45.5,16.75,9,32,9C48.75,9,52,33.07,52,45.5Z" data-name="&lt;Path&gt;" fill="#f7956a" id="ed8e1b64-2fa3-4f25-b649-e13012f241ee"/><path d="M48.22,22.43A7.6,7.6,0,0,0,45,23a11.38,11.38,0,0,1-13-4c-1.87-2.81-1.19-7.36-.57-10A5.44,5.44,0,0,1,32,9C40.32,9,45.31,14.94,48.22,22.43Z" data-name="&lt;Path&gt;" fill="#f77840" id="7dc7eeb1-6240-4618-ad0e-da856f76378e"/><path d="M52,45.5C52,57.93,43,59,32,59S12,57.93,12,45.5C12,33.23,16.63,9.6,31.43,9A5.44,5.44,0,0,1,32,9c8.32,0,13.31,5.94,16.22,13.43S52,39.24,52,45.5Z" data-name="&lt;Path&gt;" fill="none" id="e22af8c9-6688-403a-b4d7-f5f2d3f55765" stroke="#001c63" stroke-linecap="round" stroke-linejoin="round" stroke-width="2"/><path d="M52,45.5C52,57.93,43,59,32,59c-10.28,0-18.74-.93-19.87-11.06A20.78,20.78,0,0,1,12,45.5C12,33.07,16.75,25,32,25c11.19,0,16.35,3.6,18.54,9.69A32.15,32.15,0,0,1,52,45.5Z" data-name="&lt;Path&gt;" fill="#e3dfc3" id="af87c107-01ed-4687-960c-57e93f427e71"/><path d="M51,41.5C51,53.93,42,55,31,55c-8.72,0-16.13-.67-18.87-7.06A20.78,20.78,0,0,1,12,45.5c0-7.84,1.89-13.94,7.11-17.38a17.77,17.77,0,0,1,6.37-2.51A32.06,32.06,0,0,1,32,25c11.19,0,16.35,3.6,18.54,9.69A43.85,43.85,0,0,1,51,41.5Z" data-name="&lt;Path&gt;" fill="#f7f2d4" id="c96310cf-b134-452d-808b-a3f51887ff4f"/><path d="M52,45.5C52,57.93,43,59,32,59S12,57.93,12,45.5,16.75,25,32,25C48.75,25,52,33.07,52,45.5Z" data-name="&lt;Path&gt;" fill="none" id="868447cd-6f00-4a00-8c9b-36c3e17ee26f" stroke="#001c63" stroke-linecap="round" stroke-linejoin="round" stroke-width="2"/><path d="M16,37s2.63,6.75,4,7,2-8,2-8" data-name="&lt;Path&gt;" fill="none" id="fd84dfbb-e916-445e-aba7-a39231001f88" stroke="#001c63" stroke-linecap="round" stroke-linejoin="round" stroke-width="2"/><path d="M48,37s-2.62,6.75-4,7-2-8-2-8" data-name="&lt;Path&gt;" fill="none" id="f2d20c6c-49e0-44c5-a532-2e1b20ff7ad1" stroke="#001c63" stroke-linecap="round" stroke-linejoin="round" stroke-width="2"/><circle cx="27" cy="20" data-name="&lt;Path&gt;" fill="#001c63" id="b09f1be7-e945-4499-beb3-7ad78a450057" r="1"/><circle cx="37" cy="20" data-name="&lt;Path&gt;" fill="#001c63" id="ec3d3e5d-9a98-4e07-a4d7-34b0bbc99a3b" r="1"/><path d="M35,24.5A2.19,2.19,0,0,1,34.28,26a3.2,3.2,0,0,1-4.56,0A2.19,2.19,0,0,1,29,24.5c0-1.66,1.34-1.5,3-1.5S35,22.84,35,24.5Z" data-name="&lt;Path&gt;" fill="#001c63" id="d36a0d59-c961-4086-83c0-e154d08ceebc"/><path d="M34.63,29.45a3,3,0,0,1-5.26,0A1,1,0,0,1,30,28a.84.84,0,0,1,.27,0h3.46A.84.84,0,0,1,34,28,1,1,0,0,1,34.63,29.45Z" data-name="&lt;Path&gt;" fill="#001c63" id="f4cbe798-d727-4544-8a5a-feb10f4667a2"/><path d="M33,28v.36a.64.64,0,0,1-.64.64h-.72a.64.64,0,0,1-.64-.64V28a.84.84,0,0,1,.27,0Z" data-name="&lt;Path&gt;" fill="#fff" id="e7ce3443-ca77-4051-a9c2-9efd644f0f68"/><circle cx="41.6" cy="54.4" data-name="&lt;Path&gt;" fill="#e3dfc3" id="ddeb2651-bafc-49be-a8cc-7158eed290b2" r="2.6"/><circle cx="45.2" cy="51.4" data-name="&lt;Path&gt;" fill="#e3dfc3" id="119b1978-dab6-49a8-bf06-a48bb331d71b" r="2.4"/><circle cx="43.7" cy="47.9" data-name="&lt;Path&gt;" fill="#e3dfc3" id="ddae23e4-a5c4-450d-961e-ef5b34f25c2c" r="0.9"/></g></svg>